# xmcd
#
# Track frame offsets:
#   150
#   12390
#   25417
#   38057
#   50335
#   62725
#   75682
#   87965
#   100457
#   112857
#   124692
#   137520
#   149715
#   162270
#   174645
#   186305
#   199165
#   211505
#   224647
#   237870
#   251087
#
# Disc length: 3517 seconds
#
# Revision: 0
# Processed by: cddbd v1.4PL0 Copyright (c) Steve Scherf et al.
# Submitted via: uFREEDB 1.6.0
#
DISCID=2f0dbb15
DTITLE=Williams, Hank - His Best Recordings 1947-1949, Vol. 1
DYEAR=1995
DGENRE=Country
TTITLE0=Never Again
TTITLE1=Calling You
TTITLE2=I Don't Care
TTITLE3=I Heard You Crying In Your Sleep
TTITLE4=Move It On Over
TTITLE5=On The Banks Of The Old Pontchartrain
TTITLE6=My Sweet Love Ain't Around
TTITLE7=Rootie Tootie
TTITLE8=Honky Tonkin'
TTITLE9=I'll Be A Bachelor 'Til I Die
TTITLE10=I'm A Long Gone Daddy
TTITLE11=The Blues Come Around
TTITLE12=Six More Miles
TTITLE13=I Saw The Light
TTITLE14=A Mansion On The Hill
TTITLE15=I Can't Get You Off Of My Mind
TTITLE16=Lovesick Blues
TTITLE17=Wedding Bells
TTITLE18=I've Just Told Mama Goodbye
TTITLE19=Mind Your Own Business
TTITLE20=There'll Be No Teardrops Tonight
EXTD=
EXTT0=
EXTT1=
EXTT2=
EXTT3=
EXTT4=
EXTT5=
EXTT6=
EXTT7=
EXTT8=
EXTT9=
EXTT10=
EXTT11=
EXTT12=
EXTT13=
EXTT14=
EXTT15=
EXTT16=
EXTT17=
EXTT18=
EXTT19=
EXTT20=
PLAYORDER=
